<svg xmlns="http://www.w3.org/2000/svg" viewBox="0 0 300 40" preserveAspectRatio="none">
  <!-- Main brush stroke body with irregular edges -->
  <path d="M5,20 Q8,15 15,18 L20,16 L25,19 L30,17 L35,20 L40,18 L45,21 L50,19 L55,22 L60,20 L65,18 L70,21 L75,19 L80,22 L85,20 L90,18 L95,21 L100,19 L105,22 L110,20 L115,18 L120,21 L125,19 L130,22 L135,20 L140,18 L145,21 L150,19 L155,22 L160,20 L165,18 L170,21 L175,19 L180,22 L185,20 L190,18 L195,21 L200,19 L205,22 L210,20 L215,18 L220,21 L225,19 L230,22 L235,20 L240,18 L245,21 L250,19 L255,22 L260,20 L265,18 L270,21 L275,19 L280,22 L285,20 L290,18 L295,20" 
        fill="#2C1810" opacity="0.9"/>
  
  <!-- Top edge variation for texture -->
  <path d="M3,18 L8,15 L13,17 L18,14 L23,16 L28,14 L33,17 L38,15 L43,18 L48,16 L53,19 L58,17 L63,15 L68,18 L73,16 L78,19 L83,17 L88,15 L93,18 L98,16 L103,19 L108,17 L113,15 L118,18 L123,16 L128,19 L133,17 L138,15 L143,18 L148,16 L153,19 L158,17 L163,15 L168,18 L173,16 L178,19 L183,17 L188,15 L193,18 L198,16 L203,19 L208,17 L213,15 L218,18 L223,16 L228,19 L233,17 L238,15 L243,18 L248,16 L253,19 L258,17 L263,15 L268,18 L273,16 L278,19 L283,17 L288,15 L293,18 L297,16" 
        fill="#2C1810" opacity="0.7"/>
  
  <!-- Bottom edge variation for texture -->
  <path d="M5,22 L10,24 L15,22 L20,25 L25,23 L30,25 L35,23 L40,26 L45,24 L50,26 L55,24 L60,22 L65,25 L70,23 L75,25 L80,23 L85,26 L90,24 L95,26 L100,24 L105,22 L110,25 L115,23 L120,25 L125,23 L130,26 L135,24 L140,26 L145,24 L150,22 L155,25 L160,23 L165,25 L170,23 L175,26 L180,24 L185,26 L190,24 L195,22 L200,25 L205,23 L210,25 L215,23 L220,26 L225,24 L230,26 L235,24 L240,22 L245,25 L250,23 L255,25 L260,23 L265,26 L270,24 L275,26 L280,24 L285,22 L290,25 L295,23" 
        fill="#2C1810" opacity="0.7"/>
</svg>
